<svg width="32" height="32" viewBox="0 0 32 32" fill="none" xmlns="http://www.w3.org/2000/svg">
<path d="M18 23H16V21C15.9992 20.2046 15.6829 19.442 15.1204 18.8796C14.558 18.3171 13.7954 18.0008 13 18H9C8.20459 18.0008 7.44199 18.3171 6.87956 18.8796C6.31712 19.442 6.00079 20.2046 6 21V23H4V21C4.00159 19.6744 4.52888 18.4036 5.46622 17.4662C6.40356 16.5289 7.67441 16.0016 9 16H13C14.3256 16.0016 15.5964 16.5289 16.5338 17.4662C17.4711 18.4036 17.9984 19.6744 18 21V23ZM11 6C11.5933 6 12.1734 6.17595 12.6667 6.50559C13.1601 6.83524 13.5446 7.30377 13.7716 7.85195C13.9987 8.40013 14.0581 9.00333 13.9424 9.58527C13.8266 10.1672 13.5409 10.7018 13.1213 11.1213C12.7018 11.5409 12.1672 11.8266 11.5853 11.9424C11.0033 12.0581 10.4001 11.9987 9.85195 11.7716C9.30377 11.5446 8.83524 11.1601 8.50559 10.6667C8.17595 10.1734 8 9.59334 8 9C8 8.20435 8.31607 7.44129 8.87868 6.87868C9.44129 6.31607 10.2044 6 11 6ZM11 4C10.0111 4 9.04439 4.29324 8.22215 4.84265C7.3999 5.39206 6.75904 6.17295 6.3806 7.08658C6.00216 8.00021 5.90315 9.00555 6.09607 9.97545C6.289 10.9454 6.7652 11.8363 7.46447 12.5355C8.16373 13.2348 9.05464 13.711 10.0245 13.9039C10.9945 14.0969 11.9998 13.9978 12.9134 13.6194C13.827 13.241 14.6079 12.6001 15.1573 11.7779C15.7068 10.9556 16 9.98891 16 9C16 7.67392 15.4732 6.40215 14.5355 5.46447C13.5979 4.52678 12.3261 4 11 4ZM2 26H30V28H2V26ZM27.303 8C26.9472 8.00004 26.5951 8.07138 26.2674 8.20982C25.9397 8.34825 25.643 8.55097 25.395 8.806L25 9.21L24.605 8.805C24.3569 8.55003 24.0603 8.34736 23.7326 8.20897C23.4049 8.07058 23.0527 7.99928 22.697 7.99928C22.3413 7.99928 21.9891 8.07058 21.6614 8.20897C21.3337 8.34736 21.0371 8.55003 20.789 8.805C20.2831 9.3273 20.0003 10.0259 20.0003 10.753C20.0003 11.4801 20.2831 12.1787 20.789 12.701L25 17L29.21 12.702C29.7159 12.1797 29.9987 11.4811 29.9987 10.754C29.9987 10.0269 29.7159 9.3283 29.21 8.806C28.9622 8.55122 28.6659 8.34864 28.3385 8.21021C28.0112 8.07178 27.6594 8.0003 27.304 8" fill="#E1B07E"/>
</svg>
