<svg width="32" height="32" viewBox="0 0 32 32" fill="none" xmlns="http://www.w3.org/2000/svg">
<path d="M19 10H26V12H19V10ZM19 15H26V17H19V15ZM19 20H26V22H19V20Z" fill="#E1B07E"/>
<path d="M28 5H4C3.46973 5.00053 2.96133 5.21141 2.58637 5.58637C2.21141 5.96133 2.00053 6.46973 2 7V25C2.00053 25.5303 2.21141 26.0387 2.58637 26.4136C2.96133 26.7886 3.46973 26.9995 4 27H28C28.5302 26.9992 29.0384 26.7882 29.4133 26.4133C29.7882 26.0384 29.9992 25.5302 30 25V7C29.9995 6.46973 29.7886 5.96133 29.4136 5.58637C29.0387 5.21141 28.5303 5.00053 28 5ZM4 7H15V25H4V7ZM17 25V7H28L28.002 25H17Z" fill="#E1B07E"/>
</svg>
